ply
format ascii 1.0
comment VCGLIB generated
element vertex 12
property float x
property float y
property float z
element face 20
property list uchar int vertex_indices
end_header
-0.707107 0 0.707107 
-0.707107 0 -0.707107 
-0.707107 -0.707107 0 
0 -0.707107 0.707107 
0 0.707107 0.707107 
0 -0.707107 -0.707107 
0 0.707107 -0.707107 
0.707107 0.707107 0 
0.707107 0 0.707107 
-0.707107 0.707107 0 
0.707107 0 -0.707107 
0.707107 -0.707107 0 
3 0 1 2 
3 2 3 0 
3 4 0 3 
3 5 1 6 
3 5 2 1 
3 5 3 2 
3 7 6 4 
3 8 4 3 
3 8 7 4 
3 9 4 6 
3 9 1 0 
3 9 6 1 
3 9 0 4 
3 10 7 8 
3 10 5 6 
3 10 6 7 
3 11 10 8 
3 11 3 5 
3 11 5 10 
3 11 8 3 
